<svg width="90" height="30" viewBox="0 0 90 30" fill="none" xmlns="http://www.w3.org/2000/svg">
<g clip-path="url(#clip0_1_2711)">
<path d="M38.3141 15.3849C38.3141 19.549 35.0302 22.6175 31 22.6175C26.9699 22.6175 23.686 19.549 23.686 15.3849C23.686 11.1914 26.9699 8.15228 31 8.15228C35.0302 8.15228 38.3141 11.1914 38.3141 15.3849ZM35.1123 15.3849C35.1123 12.7827 33.209 11.0023 31 11.0023C28.7911 11.0023 26.8878 12.7827 26.8878 15.3849C26.8878 17.961 28.7911 19.7675 31 19.7675C33.209 19.7675 35.1123 17.9577 35.1123 15.3849Z" fill="#EA4335"/>
<path d="M54.0924 15.3849C54.0924 19.549 50.8085 22.6175 46.7784 22.6175C42.7483 22.6175 39.4644 19.549 39.4644 15.3849C39.4644 11.1947 42.7483 8.15228 46.7784 8.15228C50.8085 8.15228 54.0924 11.1914 54.0924 15.3849ZM50.8906 15.3849C50.8906 12.7827 48.9874 11.0023 46.7784 11.0023C44.5694 11.0023 42.6661 12.7827 42.6661 15.3849C42.6661 17.961 44.5694 19.7675 46.7784 19.7675C48.9874 19.7675 50.8906 17.9577 50.8906 15.3849Z" fill="#FBBC05"/>
<path d="M69.2135 8.58924V21.574C69.2135 26.9153 66.0381 29.0968 62.2841 29.0968C58.7503 29.0968 56.6235 26.7523 55.8214 24.8349L58.609 23.6838C59.1054 24.861 60.3216 26.2501 62.2808 26.2501C64.6837 26.2501 66.1728 24.7795 66.1728 22.011V20.9708H66.0611C65.3445 21.8479 63.9638 22.6142 62.2216 22.6142C58.5761 22.6142 55.2363 19.4642 55.2363 15.411C55.2363 11.3284 58.5761 8.15228 62.2216 8.15228C63.9606 8.15228 65.3412 8.91859 66.0611 9.76967H66.1728V8.5925H69.2135V8.58924ZM66.3997 15.411C66.3997 12.8642 64.687 11.0023 62.5076 11.0023C60.2986 11.0023 58.4479 12.8642 58.4479 15.411C58.4479 17.9316 60.2986 19.7675 62.5076 19.7675C64.687 19.7675 66.3997 17.9316 66.3997 15.411Z" fill="#4285F4"/>
<path d="M74.2263 0.978394V22.174H71.1035V0.978394H74.2263Z" fill="#34A853"/>
<path d="M86.396 17.7654L88.8812 19.4088C88.0791 20.586 86.1462 22.6143 82.8064 22.6143C78.6645 22.6143 75.5713 19.4382 75.5713 15.3817C75.5713 11.0806 78.6908 8.14905 82.4481 8.14905C86.2317 8.14905 88.0824 11.136 88.6872 12.7501L89.0192 13.5719L79.2727 17.5762C80.0189 19.0273 81.1793 19.7675 82.8064 19.7675C84.4369 19.7675 85.5677 18.9719 86.396 17.7654ZM78.7467 15.1632L85.262 12.4795C84.9036 11.5762 83.8254 10.9469 82.5566 10.9469C80.9294 10.9469 78.6645 12.3719 78.7467 15.1632Z" fill="#EA4335"/>
<path d="M11.8655 13.5034V10.4349H22.2892C22.3911 10.9697 22.4437 11.6023 22.4437 12.2871C22.4437 14.5893 21.8093 17.436 19.7646 19.4643C17.7759 21.5186 15.2349 22.6143 11.8688 22.6143C5.62967 22.6143 0.383301 17.5729 0.383301 11.3838C0.383301 5.19469 5.62967 0.153381 11.8688 0.153381C15.3203 0.153381 17.7792 1.49686 19.6266 3.24795L17.4439 5.41316C16.1191 4.18056 14.3243 3.22186 11.8655 3.22186C7.30943 3.22186 3.7461 6.86425 3.7461 11.3838C3.7461 15.9034 7.30943 19.5458 11.8655 19.5458C14.8207 19.5458 16.5037 18.3686 17.5819 17.299C18.4563 16.4316 19.0316 15.1925 19.2584 13.5001L11.8655 13.5034Z" fill="#4285F4"/>
</g>
<defs>
<clipPath id="clip0_1_2711">
<rect width="89.4118" height="30" fill="white" transform="translate(0.264648 0.00012207)"/>
</clipPath>
</defs>
</svg>
